<svg xmlns="http://www.w3.org/2000/svg" width="113" height="79" fill="none">
  <path fill="#537991" d="M52.7481 10.9904c-.113.0765-1.13.2678-2.26.3825-6.78.7651-15.0667 4.6672-20.34 9.6022-1.7327 1.6067-4.8967 6.0443-4.8967 6.8094 0 .3061-.1506.6886-.339.8799-.5273.5356-.678 4.4759-.226 4.6289.226.0766.791-.459 1.2807-1.2241 1.695-2.4866 6.554-5.4706 10.961-6.6565 9.5673-2.6014 23.5793.1148 32.3933 6.2357 1.6574 1.1859 2.147 1.5684 4.3317 3.4812l1.13.9946-3.164 3.0605c-2.034 1.9893-2.938 3.1369-2.599 3.2517.2637.1148 5.9137.153 12.543.1148l12.0533-.1148.113-12.7391c.0754-9.9082 0-12.7008-.3766-12.7008-.2637 0-1.9587 1.492-3.7667 3.3282l-3.3146 3.3282-1.3937-1.3006c-.791-.7269-1.5067-1.4538-1.6197-1.5685-.113-.153-1.582-1.2242-3.277-2.3719-4.8967-3.3664-10.0193-5.6235-16.046-7.0007-1.2053-.3061-10.961-.6504-11.187-.4208Zm10.0193 1.4919c1.017.1913 2.26.4208 2.7874.5356 5.65 1.1094 13.3716 5.3558 18.645 10.2525 1.0546.9564 1.9586 1.7597 2.0717 1.7597.1129 0 1.4689-1.3006 3.0133-2.8691 1.5443-1.5685 2.938-2.8692 3.0887-2.8692.1506 0 .2636 4.9732.2636 11.0941V41.48H70.7528l2.7873-2.6779 2.7497-2.6396-1.921-1.8745c-3.164-3.0987-8.4374-6.3122-12.769-7.8807-1.017-.3825-2.2224-.8033-2.6367-.9946-.4143-.1913-1.356-.4591-2.0717-.6121-.7156-.153-1.469-.3443-1.695-.3825-7.6086-1.6068-13.1456-1.6068-18.9086 0-4.2187 1.2241-7.458 3.0221-9.605 5.3175-1.3937 1.4537-1.3937.5356-.0754-2.1423 1.4314-2.8692 2.6367-4.3229 5.65-6.9625 2.599-2.2189 7.6464-5.088 11.5637-6.5035 4.8967-1.7597 14.238-2.6014 18.9463-1.645Z"/>
  <path fill="#537991" d="M16.2392 36.6598c-.565.6886-.565 24.9809.0376 25.3252.1884.153 1.8834-1.2624 3.729-3.137l3.3147-3.3664 2.1847 1.9127c5.9136 5.2028 12.8443 8.7605 19.5113 9.9465.6403.1147 1.3937.306 1.695.4208.3013.1147 2.6743.2678 5.2733.306 6.4034.153 11.1494-.7268 16.724-3.0987 9.0024-3.8255 15.8577-10.9411 16.6487-17.2915.3013-2.5631-.1883-2.6013-2.26-.1913-2.5613 2.9457-6.4787 5.1645-11.5637 6.5035-.4896.1148-3.4276.306-6.554.3825-4.2563.1148-6.2903 0-8.2866-.459-1.4314-.3061-3.051-.6886-3.5407-.8034-5.424-1.1859-13.0703-5.2792-17.3643-9.2578l-.9417-.8416 2.825-2.831c1.5443-1.5684 2.825-3.0604 2.825-3.3664 0-.7652-23.617-.9564-24.2573-.1531Zm19.8503 3.5195c-1.4313 1.3772-2.5613 2.6779-2.5613 2.831 0 .459 3.277 3.3282 5.8006 5.0879 3.39 2.3336 10.8104 5.7001 13.786 6.2357.5274.1148 1.243.2678 1.582.3825.791.2296 2.034.4974 3.6914.7269 1.695.2678 10.0193.2295 11.4506-.0383 5.424-.9946 9.379-2.7544 12.3547-5.4322 2.0717-1.9511 2.373-1.4538.8287 1.3772-2.6744 4.9349-6.8554 8.7222-12.769 11.5531-6.441 3.137-11.3754 4.1699-18.8334 3.9786-9.8686-.2678-19.2853-4.3994-26.668-11.7062-.6026-.6121-1.2053-1.0711-1.3936-1.0711-.1884 0-1.582 1.3006-3.051 2.8691-1.5067 1.5685-2.8627 2.8692-3.0134 2.8692-.113 0-.2636-4.9732-.2636-11.0941V37.6545h21.583l-2.5237 2.5248Z"/>
</svg>
